<svg xmlns="http://www.w3.org/2000/svg" width="84" height="28" fill="none"><g style="mix-blend-mode:multiply"><rect width="82" height="27" x="1" y=".5" fill="#F9F5FF" rx="13.5"/><rect width="82" height="27" x="1" y=".5" stroke="#E9D7FE" rx="13.5"/><path fill="#6941C6" d="M14.025 19V8.818h6.314v1.323H15.56v3.102h4.325v1.317h-4.325V19zm10.814.154q-1.128 0-1.944-.482a3.27 3.27 0 0 1-1.252-1.367q-.438-.885-.438-2.073 0-1.174.438-2.069a3.4 3.4 0 0 1 1.232-1.397q.795-.502 1.86-.502.645 0 1.253.214.606.214 1.088.671t.761 1.188q.279.726.279 1.765v.527h-6.07v-1.113h4.613q0-.587-.239-1.04a1.8 1.8 0 0 0-.67-.72 1.88 1.88 0 0 0-1.005-.264 1.94 1.94 0 0 0-1.094.308 2.07 2.07 0 0 0-.716.796 2.3 2.3 0 0 0-.248 1.059v.87q0 .765.268 1.302.273.538.76.82.488.28 1.14.28.421 0 .77-.12.348-.125.601-.368.255-.244.388-.602l1.407.254a2.55 2.55 0 0 1-.606 1.089 2.94 2.94 0 0 1-1.09.72q-.65.255-1.486.254m7.148.015a3.1 3.1 0 0 1-1.312-.268 2.2 2.2 0 0 1-.93-.79q-.338-.518-.338-1.269 0-.645.248-1.064.249-.417.672-.66.422-.245.944-.369a9 9 0 0 1 1.064-.189l1.114-.129q.427-.054.621-.174.195-.12.194-.388v-.034q0-.652-.368-1.01-.363-.357-1.084-.358-.75 0-1.183.333-.428.33-.591.731l-1.397-.318q.247-.696.726-1.123a2.94 2.94 0 0 1 1.108-.627 4.3 4.3 0 0 1 1.318-.199q.457 0 .97.11.516.104.964.387.452.285.74.81.29.523.289 1.358V19h-1.452v-1.044h-.06q-.144.288-.432.567t-.741.462-1.084.184m.323-1.193q.617 0 1.054-.244.443-.243.672-.636a1.65 1.65 0 0 0 .233-.85v-.985q-.08.08-.308.15-.224.064-.512.114-.289.045-.562.084l-.457.06a3.7 3.7 0 0 0-.79.184q-.354.129-.568.373-.208.238-.208.636 0 .552.407.835.407.279 1.04.279m8.99-6.612v1.193h-4.17v-1.193zm-3.052-1.83h1.486v7.224q0 .432.13.651.129.214.333.293.209.075.452.075.18 0 .313-.025.135-.024.209-.04l.269 1.228a2.5 2.5 0 0 1-.368.1q-.24.054-.597.06a2.6 2.6 0 0 1-1.094-.21 1.88 1.88 0 0 1-.82-.675q-.313-.457-.313-1.149zm9.534 6.3v-4.47h1.491V19h-1.461v-1.322h-.08a2.4 2.4 0 0 1-.845 1.019q-.576.402-1.437.402-.735 0-1.302-.323a2.27 2.27 0 0 1-.885-.97q-.318-.64-.318-1.585v-4.857h1.486v4.678q0 .78.433 1.243.432.462 1.123.462.418 0 .83-.209.419-.209.691-.631.279-.423.274-1.074M51.271 19v-7.636h1.437v1.213h.08q.208-.616.735-.97a2.1 2.1 0 0 1 1.203-.358 6 6 0 0 1 .631.035v1.422a3 3 0 0 0-.318-.055 3 3 0 0 0-.457-.034 1.94 1.94 0 0 0-.94.223 1.66 1.66 0 0 0-.885 1.497V19zm8.39.154q-1.128 0-1.943-.482a3.27 3.27 0 0 1-1.253-1.367q-.438-.885-.438-2.073 0-1.174.438-2.069a3.4 3.4 0 0 1 1.233-1.397q.795-.502 1.86-.502.645 0 1.252.214.606.214 1.089.671.482.458.76 1.188.279.726.279 1.765v.527h-6.07v-1.113h4.613q0-.587-.239-1.04a1.8 1.8 0 0 0-.67-.72 1.88 1.88 0 0 0-1.005-.264 1.94 1.94 0 0 0-1.094.308 2.07 2.07 0 0 0-.715.796 2.3 2.3 0 0 0-.25 1.059v.87q0 .765.27 1.302.273.538.76.82.487.28 1.139.28.422 0 .77-.12.348-.125.602-.368.254-.244.387-.602l1.407.254a2.55 2.55 0 0 1-.606 1.089 2.94 2.94 0 0 1-1.089.72q-.651.255-1.486.254m10.648-5.926-1.347.239a1.6 1.6 0 0 0-.268-.493 1.3 1.3 0 0 0-.487-.382q-.309-.15-.771-.15-.631 0-1.054.284-.423.278-.423.72 0 .384.284.617.283.234.915.383l1.213.278q1.053.244 1.57.751t.518 1.318q0 .686-.398 1.223-.393.531-1.099.835-.701.303-1.626.303-1.282 0-2.093-.547-.81-.552-.994-1.566l1.437-.219q.134.562.552.85.417.285 1.088.284.731 0 1.169-.303.437-.309.437-.751a.78.78 0 0 0-.268-.602q-.264-.243-.81-.368l-1.293-.283q-1.07-.243-1.581-.775-.507-.532-.507-1.348 0-.675.378-1.183.378-.507 1.044-.79.666-.29 1.526-.289 1.238 0 1.949.537.71.532.94 1.427"/></g></svg>