<svg xmlns="http://www.w3.org/2000/svg" width="23" height="22" fill="none"><path stroke="#344054" stroke-linecap="round" stroke-linejoin="round" stroke-width="2" d="M11.5 21c5.523 0 10-4.477 10-10s-4.477-10-10-10-10 4.477-10 10 4.477 10 10 10"/><path stroke="#344054" stroke-linecap="round" stroke-linejoin="round" stroke-width="2" d="M9 7.965c0-.477 0-.716.1-.849a.5.5 0 0 1 .364-.199c.166-.012.367.117.769.375l4.72 3.035c.349.224.523.336.583.478a.5.5 0 0 1 0 .39c-.06.142-.234.254-.583.478l-4.72 3.035c-.402.258-.603.387-.769.375a.5.5 0 0 1-.364-.2c-.1-.132-.1-.371-.1-.848z"/></svg>