<svg xmlns="http://www.w3.org/2000/svg" width="116" height="24" fill="none"><g clip-path="url(#a)"><path fill="#6941C6" d="M1.148 18V6.364h2.108v9.869H8.38V18zm12.835.17q-1.312 0-2.267-.545a3.7 3.7 0 0 1-1.46-1.557q-.512-1.011-.512-2.38 0-1.347.512-2.364a3.87 3.87 0 0 1 1.443-1.591q.926-.574 2.176-.574.807 0 1.523.261.72.255 1.273.796.555.54.875 1.375.318.83.318 1.977v.63H10.71v-1.386h5.182a2.2 2.2 0 0 0-.256-1.05 1.86 1.86 0 0 0-.698-.734 1.97 1.97 0 0 0-1.035-.267q-.63 0-1.107.307-.478.3-.745.796a2.3 2.3 0 0 0-.267 1.073v1.21q0 .762.278 1.307.28.54.779.83.5.284 1.17.284.45 0 .813-.125.364-.13.63-.38.268-.25.404-.62l1.92.216q-.18.761-.693 1.33a3.4 3.4 0 0 1-1.295.875q-.79.306-1.807.306m8.132.006a3.6 3.6 0 0 1-1.494-.295q-.66-.302-1.046-.887-.38-.584-.38-1.443 0-.739.272-1.222.273-.482.745-.772a3.8 3.8 0 0 1 1.062-.438 9 9 0 0 1 1.233-.221q.767-.08 1.244-.142.478-.069.694-.205.22-.142.221-.437v-.035q0-.642-.38-.994-.381-.352-1.097-.352-.756 0-1.199.33-.438.33-.59.778l-1.921-.273q.226-.795.75-1.33.522-.54 1.278-.806a4.9 4.9 0 0 1 1.67-.273q.632 0 1.256.148.626.147 1.142.488.518.336.83.915.318.58.318 1.45V18h-1.977v-1.199h-.068q-.188.364-.529.682a2.5 2.5 0 0 1-.846.506q-.506.187-1.188.187m.534-1.511q.62 0 1.074-.244.455-.25.699-.66.25-.409.25-.892v-1.028a1 1 0 0 1-.33.148 5 5 0 0 1-.511.119q-.285.051-.562.09l-.483.069q-.46.063-.824.205a1.37 1.37 0 0 0-.574.397q-.21.25-.21.648 0 .568.414.858.416.29 1.057.29M28.791 18V9.273h1.994v1.454h.091q.24-.756.819-1.165.585-.414 1.335-.414.17 0 .38.017.217.01.359.04v1.892a2 2 0 0 0-.415-.08 4 4 0 0 0-.54-.04 2.1 2.1 0 0 0-1.011.245q-.444.238-.7.664t-.255.983V18zm8.4-5.114V18h-2.056V9.273H37.1v1.483h.102q.3-.733.96-1.165.665-.432 1.642-.432.904 0 1.574.386.677.387 1.046 1.12.375.732.369 1.778V18h-2.057v-5.239q0-.875-.454-1.369-.45-.494-1.245-.494-.54 0-.96.238-.414.233-.653.677-.233.443-.233 1.073M48.855 18V9.273h1.966v1.483h.102q.273-.75.903-1.17.63-.427 1.506-.427.886 0 1.494.432.614.426.864 1.165h.09q.291-.728.978-1.16.694-.437 1.642-.437 1.205 0 1.966.761.761.762.761 2.222V18h-2.062v-5.54q0-.812-.432-1.187a1.54 1.54 0 0 0-1.057-.381q-.744 0-1.165.466-.414.46-.414 1.199V18h-2.017v-5.625q0-.675-.41-1.08-.402-.402-1.056-.403-.444 0-.807.227a1.6 1.6 0 0 0-.58.631 2 2 0 0 0-.215.943V18zm18.166.17q-1.278 0-2.216-.562a3.8 3.8 0 0 1-1.455-1.574q-.51-1.011-.51-2.363t.51-2.37a3.8 3.8 0 0 1 1.455-1.58q.938-.562 2.216-.562t2.216.563a3.78 3.78 0 0 1 1.449 1.58q.516 1.016.517 2.369 0 1.352-.517 2.363a3.8 3.8 0 0 1-1.45 1.574q-.936.563-2.215.563m.011-1.647q.693 0 1.16-.381.465-.386.692-1.034.234-.648.234-1.443 0-.8-.234-1.45-.227-.652-.693-1.039t-1.159-.386q-.71 0-1.182.386-.465.386-.698 1.04a4.4 4.4 0 0 0-.228 1.449q0 .795.228 1.443.233.648.698 1.034.472.38 1.182.38M72.947 18V9.273h1.995v1.454h.09q.24-.756.819-1.165.585-.414 1.335-.414.17 0 .38.017.217.01.359.04v1.892a2 2 0 0 0-.415-.08 4 4 0 0 0-.54-.04 2.1 2.1 0 0 0-1.011.245q-.444.238-.7.664t-.255.983V18zm9.849.17q-1.313 0-2.268-.545a3.7 3.7 0 0 1-1.46-1.557q-.51-1.011-.511-2.38 0-1.347.511-2.364a3.87 3.87 0 0 1 1.443-1.591q.927-.574 2.177-.574.806 0 1.522.261.722.255 1.273.796.557.54.875 1.375.318.83.318 1.977v.63h-7.153v-1.386h5.182a2.2 2.2 0 0 0-.256-1.05 1.86 1.86 0 0 0-.699-.734 1.97 1.97 0 0 0-1.034-.267q-.63 0-1.108.307-.477.3-.744.796a2.3 2.3 0 0 0-.267 1.073v1.21q0 .762.278 1.307.279.54.778.83.501.284 1.17.284.45 0 .813-.125.364-.13.631-.38t.404-.62l1.92.216q-.181.761-.693 1.33a3.4 3.4 0 0 1-1.296.875q-.79.306-1.806.306"/><path stroke="#6941C6" stroke-linecap="round" stroke-linejoin="round" stroke-width="1.667" d="M100.167 12h11.666m0 0L106 6.167M111.833 12 106 17.833"/></g><defs><clipPath id="a"><path fill="#fff" d="M0 0h116v24H0z"/></clipPath></defs></svg>