<svg xmlns="http://www.w3.org/2000/svg" width="142" height="40" fill="none"><path fill="#079455" d="M.583 16h8v8h-8z"/><path fill="#067647" d="M24.584 24h-8v-8h8z"/><path fill="#ABEFC6" d="m8.583 16 8-8v8l-8 8z"/><path fill="#75E0A7" d="m16.583 24-8 8v-8l8-8z"/><path fill="#47CD89" d="m.583 16 16-16v8l-8 8z"/><path fill="#17B26A" d="m24.583 24-16 16v-8l8-8z"/><path fill="#101828" d="M42.007 28.567a12.6 12.6 0 0 1-3.664-.537q-1.75-.537-2.776-1.423l1.05-2.357q1.003.794 2.45 1.307 1.47.49 2.94.49 1.82 0 2.706-.584.91-.583.91-1.54a1.44 1.44 0 0 0-.513-1.143q-.49-.466-1.26-.723a28 28 0 0 0-2.1-.584q-1.866-.442-3.033-.886a5.14 5.14 0 0 1-1.984-1.377q-.816-.957-.816-2.567 0-1.353.723-2.45.747-1.119 2.217-1.773 1.493-.653 3.64-.653 1.492 0 2.94.373 1.446.374 2.496 1.073l-.956 2.357a9.4 9.4 0 0 0-2.24-.957 8.4 8.4 0 0 0-2.264-.326q-1.796 0-2.683.606-.863.607-.863 1.61 0 .7.49 1.144.513.443 1.283.7a28 28 0 0 0 2.1.583q1.82.42 2.987.887a4.9 4.9 0 0 1 1.983 1.376q.84.935.84 2.52 0 1.355-.747 2.45-.722 1.098-2.216 1.75-1.495.654-3.64.654M51.338 15.873h2.916v12.46h-2.916zm1.47-2.053q-.793 0-1.33-.49a1.68 1.68 0 0 1-.537-1.26q0-.747.537-1.237.537-.513 1.33-.513t1.33.49q.537.467.537 1.19 0 .77-.537 1.307-.513.513-1.33.513M61.933 28.497q-1.517 0-2.964-.397-1.446-.396-2.31-1.003l1.12-2.217q.84.56 2.007.91a8.8 8.8 0 0 0 2.333.327q2.613 0 2.614-1.377 0-.653-.677-.91-.654-.256-2.123-.49-1.54-.233-2.52-.537a4 4 0 0 1-1.68-1.05q-.7-.769-.7-2.123 0-1.773 1.47-2.823 1.493-1.074 4.013-1.074 1.283 0 2.567.304 1.283.28 2.1.77l-1.12 2.216q-1.587-.933-3.57-.933-1.284 0-1.96.397-.654.373-.654 1.003 0 .7.7 1.003.724.28 2.217.537 1.493.233 2.45.537a3.75 3.75 0 0 1 1.633 1.026q.7.724.7 2.054 0 1.75-1.516 2.8t-4.13 1.05M81.53 15.873l-5.833 13.464q-.817 2.03-1.984 2.846-1.166.84-2.823.84a5.8 5.8 0 0 1-1.843-.303q-.91-.303-1.494-.84l1.167-2.147q.42.398.98.63a3.1 3.1 0 0 0 1.167.234q.77 0 1.26-.397.513-.396.933-1.33l.21-.49-5.437-12.507h3.034l3.92 9.217 3.943-9.217zM90.26 15.733q1.82 0 3.243.794a5.7 5.7 0 0 1 2.263 2.24q.817 1.446.817 3.336t-.817 3.36a5.7 5.7 0 0 1-2.263 2.24q-1.424.794-3.243.794-2.52 0-3.99-1.68v6.043h-2.917V15.873h2.776v1.634a4.5 4.5 0 0 1 1.774-1.33q1.072-.444 2.356-.444M89.933 26q1.61 0 2.636-1.073 1.05-1.074 1.05-2.824t-1.05-2.823q-1.026-1.073-2.636-1.073-1.05 0-1.89.49a3.4 3.4 0 0 0-1.33 1.353q-.49.887-.49 2.053 0 1.167.49 2.054a3.54 3.54 0 0 0 1.33 1.376q.84.467 1.89.467M106.419 15.733q2.356 0 3.78 1.377t1.423 4.083v7.14h-2.916v-6.766q0-1.634-.77-2.45-.77-.84-2.194-.84-1.61 0-2.543.98-.933.956-.933 2.776v6.3h-2.917V11.02h2.917v6.3a4.64 4.64 0 0 1 1.773-1.167q1.073-.42 2.38-.42M127.386 15.873v12.46h-2.777v-1.586q-.7.84-1.75 1.306a5.8 5.8 0 0 1-2.263.444q-2.497 0-3.944-1.377-1.423-1.4-1.423-4.13v-7.117h2.917v6.72q0 1.68.746 2.52.77.817 2.17.817 1.563 0 2.474-.957.933-.98.933-2.8v-6.3zM135.054 28.497q-1.517 0-2.963-.397-1.446-.396-2.31-1.003l1.12-2.217q.84.56 2.007.91a8.8 8.8 0 0 0 2.333.327q2.613 0 2.613-1.377 0-.653-.676-.91-.654-.256-2.124-.49-1.539-.233-2.52-.537a4 4 0 0 1-1.68-1.05q-.7-.769-.7-2.123 0-1.773 1.47-2.823 1.494-1.074 4.014-1.074 1.283 0 2.566.304 1.284.28 2.1.77l-1.12 2.216q-1.585-.933-3.57-.933-1.283 0-1.96.397-.653.373-.653 1.003 0 .7.7 1.003.723.28 2.217.537 1.493.233 2.45.537a3.76 3.76 0 0 1 1.633 1.026q.7.724.7 2.054 0 1.75-1.517 2.8t-4.13 1.05"/></svg>