<svg xmlns="http://www.w3.org/2000/svg" width="52" height="52" fill="none"><g filter="url(#a)"><rect width="48" height="48" x="2" y="1" fill="#fff" rx="10"/><rect width="47" height="47" x="2.5" y="1.5" stroke="#EAECF0" rx="9.5"/><path stroke="#344054" stroke-linecap="round" stroke-linejoin="round" stroke-width="2" d="M23 27s1.312 1.5 3.5 1.5S30 27 30 27m-.75-5h.01m-5.51 0h.01m2.74 11a8.5 8.5 0 1 0-8.057-5.783c.108.32.162.481.172.604a.9.9 0 0 1-.028.326c-.03.12-.098.245-.232.494l-1.636 3.027c-.233.432-.35.648-.324.815a.5.5 0 0 0 .234.35c.144.087.388.062.876.011l5.121-.529c.155-.016.233-.024.303-.021s.12.009.187.025c.069.015.155.049.329.115A8.5 8.5 0 0 0 26.5 33m3.25-11a.5.5 0 1 1-1 0 .5.5 0 0 1 1 0m-5.5 0a.5.5 0 1 1-1 0 .5.5 0 0 1 1 0"/></g><defs><filter id="a" width="52" height="52" x="0" y="0" color-interpolation-filters="sRGB" filterUnits="userSpaceOnUse"><feFlood flood-opacity="0" result="BackgroundImageFix"/><feColorMatrix in="SourceAlpha" result="hardAlpha" values="0 0 0 0 0 0 0 0 0 0 0 0 0 0 0 0 0 0 127 0"/><feOffset dy="1"/><feGaussianBlur stdDeviation="1"/><feColorMatrix values="0 0 0 0 0.0627451 0 0 0 0 0.0941176 0 0 0 0 0.156863 0 0 0 0.05 0"/><feBlend in2="BackgroundImageFix" result="effect1_dropShadow_3598_697"/><feBlend in="SourceGraphic" in2="effect1_dropShadow_3598_697" result="shape"/></filter></defs></svg>