<svg xmlns="http://www.w3.org/2000/svg" width="52" height="52" fill="none"><g filter="url(#a)"><rect width="48" height="48" x="2" y="1" fill="#fff" rx="10"/><rect width="47" height="47" x="2.5" y="1.5" stroke="#EAECF0" rx="9.5"/><path stroke="#344054" stroke-linecap="round" stroke-linejoin="round" stroke-width="2" d="M25 16h-3.2c-1.68 0-2.52 0-3.162.327a3 3 0 0 0-1.311 1.311C17 18.28 17 19.12 17 20.8v8.4c0 1.68 0 2.52.327 3.162a3 3 0 0 0 1.311 1.311C19.28 34 20.12 34 21.8 34h8.4c1.68 0 2.52 0 3.162-.327a3 3 0 0 0 1.311-1.311C35 31.72 35 30.88 35 29.2V26m-9-5h4v4m-.5-8.5V15m3.94 2.56 1.06-1.06m.01 5h1.5M17 26.347q.979.151 2 .153c4.386 0 8.265-2.172 10.62-5.5"/></g><defs><filter id="a" width="52" height="52" x="0" y="0" color-interpolation-filters="sRGB" filterUnits="userSpaceOnUse"><feFlood flood-opacity="0" result="BackgroundImageFix"/><feColorMatrix in="SourceAlpha" result="hardAlpha" values="0 0 0 0 0 0 0 0 0 0 0 0 0 0 0 0 0 0 127 0"/><feOffset dy="1"/><feGaussianBlur stdDeviation="1"/><feColorMatrix values="0 0 0 0 0.0627451 0 0 0 0 0.0941176 0 0 0 0 0.156863 0 0 0 0.05 0"/><feBlend in2="BackgroundImageFix" result="effect1_dropShadow_3598_688"/><feBlend in="SourceGraphic" in2="effect1_dropShadow_3598_688" result="shape"/></filter></defs></svg>