<svg xmlns="http://www.w3.org/2000/svg" width="52" height="52" fill="none"><g filter="url(#a)"><rect width="48" height="48" x="2" y="1" fill="#fff" rx="10"/><rect width="47" height="47" x="2.5" y="1.5" stroke="#EAECF0" rx="9.5"/><path stroke="#344054" stroke-linecap="round" stroke-linejoin="round" stroke-width="2" d="M20.094 24.229Q20.001 23.628 20 23c0-4.418 3.605-8 8.053-8 4.447 0 8.052 3.582 8.052 8 0 .998-.184 1.953-.52 2.834-.07.183-.105.275-.12.346a1 1 0 0 0-.024.194c-.002.073.008.153.028.314l.403 3.27c.043.355.065.532.006.66a.5.5 0 0 1-.257.252c-.13.055-.306.03-.66-.022l-3.184-.467c-.167-.024-.25-.037-.326-.036a1 1 0 0 0-.2.021c-.074.016-.169.051-.358.122a8.174 8.174 0 0 1-4.07.42M21.632 35C24.596 35 27 32.538 27 29.5S24.596 24 21.632 24s-5.369 2.462-5.369 5.5c0 .61.097 1.198.276 1.747.076.232.114.348.127.427.013.083.015.13.01.213-.005.08-.025.17-.065.351L16 35l2.995-.409c.163-.022.245-.034.316-.033.076 0 .115.005.19.02.07.013.173.05.381.123a5.3 5.3 0 0 0 1.75.299"/></g><defs><filter id="a" width="52" height="52" x="0" y="0" color-interpolation-filters="sRGB" filterUnits="userSpaceOnUse"><feFlood flood-opacity="0" result="BackgroundImageFix"/><feColorMatrix in="SourceAlpha" result="hardAlpha" values="0 0 0 0 0 0 0 0 0 0 0 0 0 0 0 0 0 0 127 0"/><feOffset dy="1"/><feGaussianBlur stdDeviation="1"/><feColorMatrix values="0 0 0 0 0.0627451 0 0 0 0 0.0941176 0 0 0 0 0.156863 0 0 0 0.05 0"/><feBlend in2="BackgroundImageFix" result="effect1_dropShadow_3598_672"/><feBlend in="SourceGraphic" in2="effect1_dropShadow_3598_672" result="shape"/></filter></defs></svg>