<svg xmlns="http://www.w3.org/2000/svg" width="52" height="52" fill="none"><g filter="url(#a)"><rect width="48" height="48" x="2" y="1" fill="#fff" rx="10"/><rect width="47" height="47" x="2.5" y="1.5" stroke="#EAECF0" rx="9.5"/><path stroke="#344054" stroke-linecap="round" stroke-linejoin="round" stroke-width="2" d="M35 24.5a8.5 8.5 0 0 1-11.555 7.935c-.174-.067-.26-.1-.33-.117a1 1 0 0 0-.185-.024c-.071-.003-.149.005-.304.021l-5.12.53c-.49.05-.733.075-.877-.013a.5.5 0 0 1-.234-.35c-.026-.166.09-.382.324-.814l1.636-3.027c.134-.25.202-.374.232-.494a.9.9 0 0 0 .028-.326c-.01-.123-.064-.283-.172-.604A8.5 8.5 0 1 1 35 24.5"/><path stroke="#344054" stroke-linecap="round" stroke-linejoin="round" stroke-width="2" d="M26.497 21.95c-.9-1.04-2.4-1.319-3.528-.368-1.127.951-1.286 2.542-.4 3.667.548.697 1.925 1.97 2.893 2.838.355.319.533.478.746.542.183.055.394.055.577 0 .213-.064.39-.223.747-.542.968-.868 2.344-2.14 2.893-2.838a2.606 2.606 0 0 0-.401-3.667c-1.147-.941-2.628-.672-3.527.367" clip-rule="evenodd"/></g><defs><filter id="a" width="52" height="52" x="0" y="0" color-interpolation-filters="sRGB" filterUnits="userSpaceOnUse"><feFlood flood-opacity="0" result="BackgroundImageFix"/><feColorMatrix in="SourceAlpha" result="hardAlpha" values="0 0 0 0 0 0 0 0 0 0 0 0 0 0 0 0 0 0 127 0"/><feOffset dy="1"/><feGaussianBlur stdDeviation="1"/><feColorMatrix values="0 0 0 0 0.0627451 0 0 0 0 0.0941176 0 0 0 0 0.156863 0 0 0 0.05 0"/><feBlend in2="BackgroundImageFix" result="effect1_dropShadow_3598_713"/><feBlend in="SourceGraphic" in2="effect1_dropShadow_3598_713" result="shape"/></filter></defs></svg>